<?xml version="1.0" standalone="no"?>
<!DOCTYPE svg PUBLIC "-//W3C//DTD SVG 20010904//EN"
 "http://www.w3.org/TR/2001/REC-SVG-20010904/DTD/svg10.dtd">
<svg version="1.0" xmlns="http://www.w3.org/2000/svg"
 width="814.000000pt" height="814.000000pt" viewBox="0 0 814.000000 814.000000"
 preserveAspectRatio="xMidYMid meet">

<g transform="translate(0.000000,814.000000) scale(0.100000,-0.100000)"
fill="#000000" stroke="none">
<path d="M0 4070 l0 -4070 4070 0 4070 0 0 4070 0 4070 -4070 0 -4070 0 0
-4070z m3759 2682 c14 -10 36 -34 49 -52 l22 -33 0 -1152 0 -1152 -23 -34
c-12 -19 -42 -44 -67 -56 l-44 -23 -1131 0 -1131 0 -44 23 c-29 14 -53 36 -68
62 -21 36 -23 48 -17 133 17 284 115 633 257 915 363 725 1057 1239 1851 1372
215 36 295 35 346 -3z m818 3 c562 -74 1064 -319 1464 -715 201 -200 346 -396
472 -640 154 -296 255 -646 274 -941 5 -88 4 -100 -17 -136 -12 -23 -39 -50
-60 -62 l-38 -21 -1149 0 -1150 0 -33 23 c-18 12 -43 35 -54 50 -21 28 -21 29
-23 1180 l-3 1152 23 40 c27 47 88 85 139 85 20 0 90 -7 155 -15z m2084 -2910
c74 -48 69 39 69 -1243 l0 -1149 -23 -34 c-12 -19 -42 -44 -67 -57 l-44 -22
-1132 0 -1131 0 -44 23 c-31 17 -50 37 -68 71 -24 47 -24 48 -12 166 77 752
490 1435 1123 1856 339 226 739 370 1145 413 98 10 138 5 184 -24z m-2904 -41
c15 -11 38 -36 51 -54 l22 -33 0 -1152 0 -1152 -23 -33 c-44 -66 -67 -75 -180
-74 -169 2 -454 62 -663 139 -254 94 -557 270 -769 448 -491 413 -817 1025
-885 1661 -14 130 -10 166 26 213 50 66 -26 63 1241 60 1151 -2 1152 -2 1180
-23z"/>
</g>
</svg>
